<?xml version="1.0" encoding="utf-8"?>
<!-- Generator: Adobe Illustrator 16.0.0, SVG Export Plug-In . SVG Version: 6.00 Build 0)  -->
<!DOCTYPE svg PUBLIC "-//W3C//DTD SVG 1.1//EN" "http://www.w3.org/Graphics/SVG/1.1/DTD/svg11.dtd">
<svg version="1.1" id="iconeventreception" xmlns="http://www.w3.org/2000/svg" xmlns:xlink="http://www.w3.org/1999/xlink" x="0px"
	 y="0px" width="50px" height="60px" viewBox="0 0 50 60" style="enable-background:new 0 0 50 60;" xml:space="preserve">
<style type="text/css">
<![CDATA[
	.st0{fill:none;stroke:#000000;stroke-width:2;stroke-linecap:round;stroke-linejoin:round;stroke-miterlimit:10;}
]]>
</style>
<g id="fill">
	<path d="M38.246,24.809c0.711,0,1.284,0.574,1.284,1.285c0,0.709-0.573,1.283-1.284,1.283c-0.708,0-1.285-0.574-1.285-1.283
		C36.961,25.383,37.538,24.809,38.246,24.809L38.246,24.809z M38.246,24.809"/>
	<path d="M35.938,28.396c0.71,0,1.286,0.576,1.286,1.285s-0.576,1.285-1.286,1.285c-0.709,0-1.283-0.576-1.283-1.285
		S35.229,28.396,35.938,28.396L35.938,28.396z M35.938,28.396"/>
	<path d="M31.837,23.783c0.71,0,1.286,0.576,1.286,1.285s-0.576,1.285-1.286,1.285c-0.708,0-1.284-0.576-1.284-1.285
		S31.129,23.783,31.837,23.783L31.837,23.783z M31.837,23.783"/>
	<path d="M19.063,12.707c0.663,0.256,0.992,0.998,0.736,1.661c-0.255,0.662-0.996,0.992-1.66,0.736
		c-0.66-0.255-0.992-0.998-0.738-1.66C17.659,12.781,18.403,12.453,19.063,12.707L19.063,12.707z M19.063,12.707"/>
	<path d="M15.62,15.226c0.662,0.256,0.993,1,0.738,1.662c-0.256,0.661-1,0.992-1.662,0.736c-0.662-0.255-0.99-0.999-0.735-1.66
		C14.216,15.302,14.958,14.971,15.62,15.226L15.62,15.226z M15.62,15.226"/>
	<path d="M13.452,9.446c0.662,0.255,0.992,1,0.738,1.661c-0.256,0.662-1,0.992-1.663,0.737c-0.66-0.255-0.99-0.999-0.736-1.661
		C12.046,9.522,12.792,9.191,13.452,9.446L13.452,9.446z M13.452,9.446"/>
</g>
<g id="line">
	<polygon class="st0" points="46.769,15.696 37.35,38.408 22.391,18.896 	"/>
	<polygon class="st0" points="34.877,58.262 39.221,52.681 44.859,56.951 	"/>
	<line class="st0" x1="37.35" y1="38.408" x2="39.221" y2="52.681"/>
	<path class="st0" d="M24.906,22.176c5.376-1.281,7.142-0.985,10.326,0.18c2.063,0.754,4.275,0.981,8.76,0.034"/>
	<polygon class="st0" points="30.292,7.27 13.336,25.076 6.395,1.489 	"/>
	<polygon class="st0" points="3.891,42.713 9.95,39.066 13.677,45.078 	"/>
	<line class="st0" x1="13.336" y1="25.076" x2="9.95" y2="39.066"/>
	<path class="st0" d="M7.563,5.454c5.477,0.738,7.018,1.649,9.57,3.881c1.653,1.445,3.637,2.453,8.161,3.182"/>
</g>
</svg>
